<?xml version="1.0" encoding="utf-8"?>
<!-- Generator: Adobe Illustrator 25.4.1, SVG Export Plug-In . SVG Version: 6.00 Build 0)  -->
<svg version="1.1" id="Слой_1" xmlns="http://www.w3.org/2000/svg" xmlns:xlink="http://www.w3.org/1999/xlink" x="0px" y="0px"
	 viewBox="0 0 16 14" style="enable-background:new 0 0 16 14;" xml:space="preserve">
<style type="text/css">
	.st0{fill:#FFFFFF;}
</style>
<g>
	<path class="st0" d="M14.7,8H1C0.4,8,0,7.6,0,7s0.4-1,1-1h13.7c0.6,0,1,0.4,1,1S15.3,8,14.7,8z"/>
</g>
<g>
	<path class="st0" d="M8.7,14c-0.3,0-0.5-0.1-0.7-0.3c-0.4-0.4-0.4-1,0-1.4L13.3,7L8,1.7c-0.4-0.4-0.4-1,0-1.4s1-0.4,1.4,0l6,6
		c0.2,0.2,0.3,0.4,0.3,0.7s-0.1,0.5-0.3,0.7l-6,6C9.2,13.9,9,14,8.7,14z"/>
</g>
</svg>
