<?xml version="1.0" encoding="utf-8"?>
<!-- Generator: Adobe Illustrator 25.4.1, SVG Export Plug-In . SVG Version: 6.00 Build 0)  -->
<svg version="1.1" id="Слой_1" xmlns="http://www.w3.org/2000/svg" xmlns:xlink="http://www.w3.org/1999/xlink" x="0px" y="0px"
	 viewBox="0 0 16 16" style="enable-background:new 0 0 16 16;" xml:space="preserve">
<style type="text/css">
	.st0{fill:#E4E4E4;}
</style>
<g>
	<path class="st0" d="M14.5,16l-2.7-2.7c-1.3,1-2.9,1.5-4.5,1.5c-2,0-3.8-0.8-5.2-2.2C0.8,11.2,0,9.3,0,7.4c0-2,0.8-3.8,2.2-5.2
		S5.4,0,7.4,0c1.9,0,3.8,0.8,5.2,2.2c1.4,1.4,2.2,3.2,2.2,5.2c0,1.6-0.5,3.2-1.5,4.5l2.7,2.7L14.5,16z M7.4,2C5.9,2,4.6,2.6,3.6,3.6
		S2,5.9,2,7.4c0,1.4,0.6,2.8,1.6,3.8c1,1,2.4,1.6,3.8,1.6c1.4,0,2.8-0.6,3.8-1.6c1-1,1.6-2.4,1.6-3.8c0-1.4-0.6-2.8-1.6-3.8
		C10.2,2.6,8.8,2,7.4,2z"/>
</g>
</svg>
